# xmcd CD database file
#
# Track frame offsets:
#	150
#	12310
#	23966
#	40605
#	54333
#	69450
#	83410
#	95017
#	107535
#	115761
#
# Disc length: 1734 seconds
#
# Revision: 0
# Processed by: cddbd v1.5.2PL0 Copyright (c) Steve Scherf et al.
# Submitted via: CDex 1.51
#
DISCID=6e06c40a
DTITLE=Wes Lee - The Shack Sessions
DYEAR=1900
DGENRE=Blues
TTITLE0=Wes Lee - Hey, Hey
TTITLE1=Wes Lee - 4 Til Late
TTITLE2=Wes Lee - It Hurts Me, Too
TTITLE3=Wes Lee - Kind Hearted Woman
TTITLE4=Wes Lee - John The Revelator
TTITLE5=Wes Lee - Key to The Highway
TTITLE6=Wes Lee - Can't Be Satisfied
TTITLE7=Wes Lee - Malted Milk
TTITLE8=Wes Lee - Crossroads
TTITLE9=Wes Lee - Cry'n
EXTD=
EXTT0=
EXTT1=
EXTT2=
EXTT3=
EXTT4=
EXTT5=
EXTT6=
EXTT7=
EXTT8=
EXTT9=
PLAYORDER=
